<svg xmlns="http://www.w3.org/2000/svg" viewBox="0 0 512 512" width="512" height="512">
  <defs>
    <linearGradient id="bg" x1="0" y1="0" x2="1" y2="1">
      <stop offset="0" stop-color="#0f1b2d"/>
      <stop offset="1" stop-color="#16283f"/>
    </linearGradient>
    <linearGradient id="serp" x1="0" y1="1" x2="0" y2="0">
      <stop offset="0" stop-color="#2dd4bf"/>
      <stop offset="1" stop-color="#67e8f9"/>
    </linearGradient>
  </defs>
  <circle cx="256" cy="256" r="240" fill="url(#bg)"/>
  <circle cx="256" cy="256" r="240" fill="none" stroke="#2dd4bf" stroke-opacity="0.35" stroke-width="6"/>
  <path d="M156 388 Q256 428 356 388 L356 356 Q256 396 156 356 Z" fill="url(#serp)"/>
  <path d="M196 372 C 168 320, 176 268, 148 232 C 132 212, 128 188, 142 168 C 130 168, 122 158, 122 146 C 122 128, 140 118, 156 124 C 178 132, 186 156, 176 176 C 196 208, 206 252, 214 296 C 219 324, 226 350, 238 368 Z" fill="url(#serp)"/>
  <circle cx="141" cy="141" r="6" fill="#0f1b2d"/>
  <path d="M236 366 C 236 300, 240 232, 240 176 C 240 150, 248 128, 268 116 C 260 108, 260 94, 270 88 C 284 79, 302 88, 302 104 C 302 122, 288 132, 276 130 C 268 144, 266 164, 268 190 C 272 250, 274 310, 276 366 Z" fill="url(#serp)"/>
  <circle cx="288" cy="102" r="6" fill="#0f1b2d"/>
  <path d="M316 372 C 344 324, 338 272, 366 240 C 382 222, 388 198, 376 178 C 388 178, 396 168, 396 156 C 396 138, 378 128, 362 134 C 340 142, 332 166, 342 186 C 322 216, 310 258, 300 300 C 294 326, 286 350, 274 368 Z" fill="url(#serp)"/>
  <circle cx="377" cy="151" r="6" fill="#0f1b2d"/>
  <path d="M338 92 l14 -14 m0 14 l-14 -14" stroke="#67e8f9" stroke-width="7" stroke-linecap="round" opacity="0.9"/>
</svg>
